<svg id="レイヤー_1" data-name="レイヤー 1" xmlns="http://www.w3.org/2000/svg" viewBox="0 0 1652.7 609.03">
    <defs>
        <style>.cls-1{fill:#2c2d2d;}</style>
    </defs>
    <title>logo</title>
    <g id="_グループ_" data-name="&lt;グループ&gt;">
        <g id="_グループ_2" data-name="&lt;グループ&gt;">
            <path id="_複合パス_" data-name="&lt;複合パス&gt;" class="cls-1"
                  d="M341.67,17.56l.57-.58h.57c0-.58.58-1.15,1.74-.58v-.58c.57.58,1.15.58,2.31,1.15h.57c4,4.62,8.09,9.81,12.12,13.85,5.2,8.66,5.77,16.16,1.73,24.82l-3.46,5.19c-2.31,3.46-4.62,7.5-6.93,11-6.93,7.5-14.43,14.43-21.36,21.36,1.15-.58,2.31-.58,2.89-2.31H333c-.57,1.73-1.15,3.46-2.31,4,4.62,1.73,10.39,2.31,15.59,2.31a9.31,9.31,0,0,0,4-2.31c3.46-1.73,6.93-2.31,12.12-2.31,6.93,3.46,13.27,7.5,17.89,12.12,3.46,3.46,6.93,7.5,11,11.54,5.2,1.73,8.66,5.19,9.82,9.81a1.08,1.08,0,0,0,0,1.73,4.34,4.34,0,0,0,2.89,4c1.15.58,2.88,1.15,3.46,2.89a3.41,3.41,0,0,1,2.89-1.15c-.58,1.73-.58,2.31,1.15,2.31,4,2.89,6.35,5.77,6.93,10.39-.57.58-1.15.58-1.74,1.15,0,1.15,0,1.73.58,2.31-1.73,0-2.89,0-3.46.58l1.74,3.46c-1.16,1.15-1.74,1.15-2.31.58a8.37,8.37,0,0,1-4,1.15c.57,1.73,1.15,2.89,1.15,4h-4.62l1.73,1.73c-.57.58-.57,1.15-1.15.58-.58,0-1.16,0-1.16-.58a17.74,17.74,0,0,0-5.77.58,51,51,0,0,1-8.66,2.89,14.41,14.41,0,0,1-8.08,2.31,4.38,4.38,0,0,1-2.31,1.15A137.59,137.59,0,0,0,352,191.31c6.35-4.62,12.12-11,17.32-17.89l-4.62-4.62c-.58,1.15-1.74,1.73-2.31,1.15-.58,0-.58,0-.58-.58a17.45,17.45,0,0,1-9.24,2.89c-.58.58-.58.58-.58,1.15a3.49,3.49,0,0,0-.57-2.31c-.57.58-.57.58-1.15.58v-.58c-2.89,2.89-6.93,3.46-11,2.89a38.92,38.92,0,0,1-15,5.19c-15,.58-27.71,4-38.67,11a70.59,70.59,0,0,0,15,3.46c1.15.58,2.88.58,5.19-.58a2.86,2.86,0,0,1,1.74-.58,84,84,0,0,1,23.66,14.43L345.12,219a100.7,100.7,0,0,1,12.71,15.58c2.88,3.46,2.88,6.93,1.15,9.81-.57,1.73-1.15,3.46-.57,5.19-1.15-.58-2.31-.58-3.46-1.15-.58.58-1.15,1.15-1.73,1.15V249c-1.74,2.31-3.47,2.89-6.35,2.31a1.76,1.76,0,0,0,0,2.31c1.74.58,2.31,1.73,1.15,3.46a20.46,20.46,0,0,0-5.77-1.15,6.11,6.11,0,0,1-4-3.46,61.61,61.61,0,0,1-14.43,1.73c-11,3.46-21.35,6.35-32.32,7.5-2.31.58-5.19,1.15-7.5.58a5.87,5.87,0,0,0-4.62,2.89,15.57,15.57,0,0,0,2.31,13.28,56.93,56.93,0,0,0,13.85-1.73A520.56,520.56,0,0,1,408,271.54a162.33,162.33,0,0,0,17.32.58c1.74.58,2.88,0,2.88-1.73l8.66-1.73c0,.58,0,.58.57.58a11.48,11.48,0,0,1,6.35-.58c1.74.58,2.88,1.73,4.62,2.31,6.93,4,13.28,9.24,19.63,14.43a33.33,33.33,0,0,1,4,12.12c-.57,2.89.58,6.35,2.31,9.24a7.74,7.74,0,0,1-4,3.46c-2.89-.58-5.77-.58-7.51,1.15-.57,1.15-2.88,1.73-8.07,2.31-4.62.58-11.54-1.73-19.05-6.35-9.24-5.77-19.05-9.24-29.43-9.81-2.31-.58-4.62-.58-6.35-1.15a52.76,52.76,0,0,1-9.81-.58c-.58-.58-.58-.58-.58-1.15a126.85,126.85,0,0,1-21.36-3.46c-1.73.58-3.46,1.15-5.19.58l.57-.58a11.79,11.79,0,0,0-6.35,0,24.78,24.78,0,0,0-6.93,1.15v-.58a6.32,6.32,0,0,0-4.62,0h-2.89a50.76,50.76,0,0,1-9.81,1.15,97.91,97.91,0,0,1-13.28.58,29.79,29.79,0,0,1-6.35,1.15V294a25.64,25.64,0,0,0-7.51,1.15c-.57.58-.57.58-.57,0l-.57-.58c-2.89.58-5.2,1.15-7.51,1.73-.58.58-.58.58-.58,0-.57.58-.57.58-1.15,0H292.6l.58.58H292v-.58c-4.62.58-8.07.58-12.12,1.15-1.15.58-1.15.58-.57,1.15h-.58C277.59,305,277,310.21,277.59,316a26.8,26.8,0,0,1,5.77,2.89c1.15,1.15,2.89,1.73,5.77,2.31,4,3.46,8.08,6.93,12.12,9.81a22.38,22.38,0,0,1,6.35,8.66c1.74,2.89,1.74,5.19.57,6.93.58,1.15.58,2.31,1.16,2.89-2.31,5.19-5.78,7.5-11,8.66a11.23,11.23,0,0,1-8.08,5.19c2.89,1.73,6.35,2.31,10.39,2.89.57.58,1.15,1.15,1.74,1.15v-.58a24.41,24.41,0,0,0,8.07,3.46v-.58a38,38,0,0,1-9.81-6.93c2.31,1.73,5.19,2.31,8.08,2.89-.58,0-1.15,0-1.15-.58,1.15,1.15,2.88,1.73,5.77,2.31a8.88,8.88,0,0,1-3.46-2.31c2.88,1.73,5.77,3.46,9.24,4a332,332,0,0,1,72.15,34.63,15.38,15.38,0,0,1,7.51,8.66,4.36,4.36,0,0,1,2.31.58c-.58.58-1.15,1.15-1.15,1.73s.57.58,1.15.58c-.58,2.31-1.73,4-2.31,5.77a13.63,13.63,0,0,1,3.46,5.19c-4,1.73-7.5,2.89-10.39,4.62a7,7,0,0,1-4,4c-5.78,6.35-12.12,9.24-20.78,8.66-.58.58-1.16.58-1.16,0h-.57V443a8.2,8.2,0,0,1-3.46,1.15c-1.73.58-2.89.58-3.46,1.15.57.58.57,0,.57-.58a68.67,68.67,0,0,1-20.78,5.19,13.55,13.55,0,0,1-4.62,1.15c.58,0,.58-.58.58-1.15-.58,0-.58,0-.58-.58a40.48,40.48,0,0,1-16.74,1.73,1.09,1.09,0,0,1-1.74,0,6.15,6.15,0,0,0-2.88,1.73l-.57-.58c-5.2.58-11,1.15-16.74,1.73-6.93,2.31-13.27,4-20.2,4.62H263.17A95.53,95.53,0,0,1,261.43,477a62.91,62.91,0,0,0-1.74,15A116.37,116.37,0,0,1,258,512.81a140,140,0,0,0,.58,16.16,41.77,41.77,0,0,0-2.31,8.08A213.2,213.2,0,0,1,258,563.61a20.46,20.46,0,0,1,1.15,11.54c0,1.15,0,2.31-.57,2.89a23.58,23.58,0,0,1-1.74,12.7q-6.07,1.73-8.66,5.19c-1.73,0-2.31.58-2.31,1.73a7.1,7.1,0,0,0-.57,7.5,5.24,5.24,0,0,1-2.31,4.62c-5.19,0-9.24-2.89-12.12-8.08-2.31-2.31-2.89-4-2.31-6.93a116.72,116.72,0,0,1-12.12-21.36,19.51,19.51,0,0,1-3.46-6.93,4.43,4.43,0,0,1-1.15-2.89l.58-.58c-.58-.58-.58-1.15-.58-2.31.58-.58,1.15-1.73,2.31-2.31h-.58a4.34,4.34,0,0,1,.58-2.31,2.12,2.12,0,0,0-1.73-.58,4.38,4.38,0,0,1,2.31.58c0-.58,0-.58-.58-1.15a33,33,0,0,1,6.35,6.35c1.74-.58,1.74-1.73.58-2.89,1.73,0,1.73-.58,0-1.15V556.1c1.73.58,2.31.58,2.31-.58a1.76,1.76,0,0,0,2.31,0,1.08,1.08,0,0,0,1.73,0c1.74-.58,2.89-1.15,2.31-2.89,0-.58.58-1.15,1.16-1.73h.57a25,25,0,0,0,1.15-3.46c-.58-18.47-1.73-36.36-2.89-53.68a202.76,202.76,0,0,1-.57-32.32c-19,2.31-38.1,4.62-56,6.93a140.78,140.78,0,0,1-43.87,1.15c-13.28,1.73-24.25-1.73-33.49-11a3.38,3.38,0,0,0,1.16-2.89l1.15-.58a2.55,2.55,0,0,1-.57-2.89,6.23,6.23,0,0,0,1.74-2.89c.57.58,1.15,0,2.31-.58-.58-.58,0-1.15.57-1.73l4-4c1.15-.58,2.31-2.31,3.46-4,1.16.58,1.74.58,2.31-1.15a188.61,188.61,0,0,1,23.67-8.08c12.7-4,26.55-8.66,39.25-13.85.58-.58.58-1.15.58-2.31v.58a24.53,24.53,0,0,1,2.88-7.5h.57c1.74-3.46,4.62-7.5,7.51-12.7a63.47,63.47,0,0,1,4.62-8.66h.58c.57-1.73,2.31-2.89,4.62-4,.57,0,1.15-.58,1.15-2.31.58.58,1.16.58,1.16-.58,0,.58,0,.58.57.58a2.13,2.13,0,0,1,.57-1.73,1.09,1.09,0,0,0,1.74,0V376c0,.58.57,1.15,1.74,1.73,0-.58.57-1.15,1.73-.58a3,3,0,0,0,2.31,1.15v-.58h1.15v-.58a15.37,15.37,0,0,0,2.88,3.46l.58-.58V378.9a3.17,3.17,0,0,0,2.31,3.46,77.09,77.09,0,0,0,15-5.19c.57-2.89,0-6.35-.57-9.81-8.66-1.73-16.74-3.46-24.82-5.19H179.47a8.88,8.88,0,0,1-2.31-3.46l-.58-2.31h1.16v-2.31c.57,1.15,1.15,1.15,2.31,0-.58,0-.58,0-.58-.58,0,.58.58,1.15,1.15.58v-1.73c.57,1.15,1.15,1.73,2.31,1.15v-1.15h.57c-.57-.58-.57-1.15-.57-2.31a4.06,4.06,0,0,0,2.88,2.31v-2.89c-.57,0-.57,0,0-.58A1.25,1.25,0,0,0,187,350v-1.15a4.38,4.38,0,0,1,.57-2.31,12.86,12.86,0,0,1-1.74-2.89c0,.58.58.58,1.16.58.57,1.73,1.15,2.31,2.88,1.73h.57a3.49,3.49,0,0,0-.57-2.31,4.49,4.49,0,0,0,2.31,2.31v-.58c4,1.73,8.08,1.73,13.28,0q9.52-3.46,20.78-8.66c0-6.93,0-15.58.57-24.24-.57.58-1.15,1.15-1.74.58v-.58a34.91,34.91,0,0,0-4.62,2.31,95.94,95.94,0,0,1-16.16,2.89,91.32,91.32,0,0,1-27.13,5.77,129.22,129.22,0,0,1-25.4,4,8.26,8.26,0,0,1-5.77,2.31,20.5,20.5,0,0,0-8.66.58,22.72,22.72,0,0,1-8.07,2.89v-.58h-2.89v.58a18.43,18.43,0,0,0-8.08,1.73c-8.66,4-17.32,8.66-25.4,13.28a88.7,88.7,0,0,1-12.12,8.08,72.92,72.92,0,0,1-15,7.5c-3.46,1.73-6.35,3.46-9.24,5.19-3.46,1.73-5.77,3.46-6.93,5.77-1.73,2.89-4,4.62-6.35,6.35-1.73,1.15-4,2.89-6.35,3.46-8.09,1.73-13.28-.58-15.59-6.35a30.27,30.27,0,0,1-5.77-10.39,11.21,11.21,0,0,1,.58-4V358.7c.57-.58,2.31-1.73,3.46-2.89.58-1.73,1.74-4,2.31-5.77l1.74-1.73h.57c.58-1.73,2.31-2.31,4.62-2.89a28.06,28.06,0,0,1,7.51-5.19,29,29,0,0,0,7.51-2.89c2.31.58,5.19.58,8.07,1.15a93.06,93.06,0,0,0,27.71-12.7c8.09-4,15.59-7.5,24.25-11,26-15,51.37-30.59,75.61-48.49,15.58-7.5,31.74-15.58,47.91-23.09-.57-2.89-.57-6.35-1.15-9.81h-17.9a134.47,134.47,0,0,1-40.4,1.15c-2.89-.58-4.62-1.73-5.77-3.46-.57-1.73-1.15-2.89-1.74-4.62a7.71,7.71,0,0,0,3.47-2.89h-.58a6.66,6.66,0,0,0,4-2.89c1.74.58,2.31,0,.58-1.73,2.89,0,5.2-1.15,5.77-4,1.15-.58,1.74-1.15,1.15-2.31,1.73.58,2.31,0,2.89-1.15.57.58,1.15.58,1.73-.58-4-4.62-7.51-9.24-9.82-14.43-3.46-4-5.77-8.08-6.35-12.7,0-1.73-.58-2.89-2.31-4.62q-.87.87-1.73-1.73c-.58-1.15,0-2.31,2.31-4-1.16-.58-1.16-1.73.57-2.89.57.58,1.15,0,1.15-.58v-1.73a8.41,8.41,0,0,1,5.2-3.46c1.15-1.15,2.31-2.89,4-4l.58-.58c-.58,0-.58,0-.58-.58,0,.58,0,.58.58.58a4.42,4.42,0,0,0,1.15-2.89H172a2.11,2.11,0,0,0,.58-1.73,20.63,20.63,0,0,0-5.2,2.31,52.71,52.71,0,0,1-8.07,4c-2.31,2.89-4.62,4.62-6.93,7.5,0,.58,0,.58.57,0v.58a23.53,23.53,0,0,1-5.19,2.89,25.81,25.81,0,0,1-11.54,9.24,101.41,101.41,0,0,1-8.66,7.5c0-.58.57-.58,1.15-1.15h-1.15a45.75,45.75,0,0,0,8.66-6.93v-1.15a17.18,17.18,0,0,0-4.62,2.31h-3.47a19.92,19.92,0,0,1-6.93,1.73c-5.77,2.89-11.54,4.62-16.16,6.35-2.88.58-5.19,1.15-8.07,1.73-3.47,1.73-5.78,2.89-8.66,3.46-5.77,1.73-10.39,3.46-13.85,6.35a52.18,52.18,0,0,1-9.24,6.35c-1.15,1.73-2.31,2.31-4,1.73a3.66,3.66,0,0,0,0-3.46c-1.15-1.15-1.73-1.15-2.31.58a20.82,20.82,0,0,1,3.47-11.54c4-12.7,8.65-26,15-38.67,8.09-12.7,16.16-24.82,25.4-36.94,15-17.89,31.75-35.21,49.65-52.53a29.75,29.75,0,0,1,11-6.93c4,0,8.08-1.73,11.54-5.77a3.17,3.17,0,0,0,3.46-2.31c.57.58,1.15,1.15,1.74,1.15.57-2.31,2.31-2.89,5.19-2.31.57,1.15,1.74,1.73,2.31,2.31.57-.58,1.74,0,2.31.58,1.15-.58,1.74-2.31,1.74-4,14.43,11,23.09,23.67,27.13,39.83A63.62,63.62,0,0,0,221,108.19c.58,4,1.15,7.5.58,9.81a1.09,1.09,0,0,1-1.74,0,2.13,2.13,0,0,0-.57,1.73,1.25,1.25,0,0,1-1.16,1.15h-.57l-2.31,2.31h-.57a10.25,10.25,0,0,1-4.62,2.89,12.1,12.1,0,0,1-5.78,4.62c-.57,1.73-1.73,2.31-3.46,2.89V133c-7.51,6.35-13.28,12.12-19.63,18.47-2.31,1.15-2.88,2.31-2.31,3.46l3.47,1.73a2.1,2.1,0,0,1,2.88-1.15c-.57-1.15.57-1.73,2.31-2.31,11,8.08,18.47,17.89,21.35,30.59.58,5.77,1.16,12.12,1.16,18.47a128.9,128.9,0,0,0,18.47-5.19c.57-2.89,1.15-5.77.57-8.66a32.35,32.35,0,0,0-2.31-6.93,3.7,3.7,0,0,1,0-3.46c-.57,0-.57,0-.57-.58.57.58,1.15,1.15,1.73.58.58,0,1.15-.58.58-1.15.57.58.57.58,1.15.58a3.49,3.49,0,0,0-.57-2.31l.57-.58c-.57,0-.57,0-1.15-.58a16.88,16.88,0,0,1,5.19,1.15c-1.74-1.73-2.31-2.89-2.31-4.62a8.88,8.88,0,0,0,3.46,2.31c0-.58-.58-1.15-1.15-1.73v-1.15c2.31,1.15,3.46.58,4-1.15-.58,0-1.16-.58-.58-1.73h1.15c.57-.58.57-.58,1.15,0h.58a1.76,1.76,0,0,0,0-2.31,3.51,3.51,0,0,0,4.62,0h-.58a27.35,27.35,0,0,1,15.58,6.93h1.16v.58a7,7,0,0,0,5.19,2.31,32,32,0,0,0,5.19,4,116.11,116.11,0,0,0,17.32-22.51,85.15,85.15,0,0,1-16.74-6.93,13.63,13.63,0,0,1-3.46-5.19c-5.77-1.15-8.66-3.46-9.81-7.5a91.52,91.52,0,0,1-6.93-15.58c-3.47-4.62-4.62-9.81-2.89-16.16a142.47,142.47,0,0,1,13.85-28.28c15.58-16.74,31.74-32.32,48.49-47.91,1.15-1.73,2.89-2.89,5.77-4,0-1.15.57-1.73,2.31-1.15A6.15,6.15,0,0,1,322,21.61a1.76,1.76,0,0,1,2.31,0c2.89-.58,4.62-1.15,5.78-4l.57-.58c.57,1.73,1.15,1.73,1.74,1.15a4.57,4.57,0,0,0,2.88-4.62q.86,2.6,1.74,0C337.62,15.83,339.36,17,341.67,17.56ZM210.64,421a2.11,2.11,0,0,1-2.88,1.15,46.35,46.35,0,0,1-30.6,0,17.81,17.81,0,0,1-4.62,1.15,36.82,36.82,0,0,1-12.7,5.19c-12.12,5.19-23.66,10.39-36.37,15,2.89,4,6.93,5.77,12.12,5.77a434.08,434.08,0,0,0,93.51-8.66,136.36,136.36,0,0,1,.57-15.58,13.62,13.62,0,0,1-4.62-1.15C219.87,422.77,214.68,421.61,210.64,421Zm68.69-46.75a20,20,0,0,0,5.19,3.46c2.88,1.73,5.77,3.46,8.08,5.19,5.2,2.89,9.24,6.93,11,12.12l-1.73,1.73a2.11,2.11,0,0,0-.58,1.73A9.5,9.5,0,0,0,303,402c.57,1.15,0,1.73-.57,2.31,1.73,1.15,2.88,2.31,4.62,3.46-.58.58-1.16,1.15-1.16,1.73a4.34,4.34,0,0,1-4,2.89c0,.58,0,1.15.58,1.15a19.51,19.51,0,0,1-6.93,3.46,77.79,77.79,0,0,1-15.59,4,24.7,24.7,0,0,0-6.93,6.35q-.86,1.73-1.74,0a19.84,19.84,0,0,1-6.93,6.93c13.85-2.89,27.71-5.19,42.14-8.08A231.25,231.25,0,0,0,348,413a49.7,49.7,0,0,1-8.08-7.5h.57a28.71,28.71,0,0,1-11.54-7.5c0-.58.58-.58,1.16-.58-8.66-5.19-17.9-9.81-27.13-15a13.58,13.58,0,0,1-4.62-1.15h-.57c-.58,0-.58,0-.58-.58h-.58c-3.46-.58-6.35-1.15-9.24-2.89h1.16C285.09,376.59,282.21,375.44,279.33,374.28ZM285.09,294a5.5,5.5,0,0,0-5.77,1.15,4.52,4.52,0,0,0,4.62.58v.58c0-1.15,1.73-2.31,4.62-2.89A3.25,3.25,0,0,0,285.09,294Zm-5.77,76.77v.58c5.77,2.31,12.12,4.62,18.47,6.93,4,2.89,8.65,4.62,13.27,6.35l-.58.58c.58,1.15,2.31,1.73,4,1.73.57.58,1.74,1.15,2.31,1.73.57,0,.57,0,1.15.58a8.34,8.34,0,0,0,4,1.15c1.16.58,1.74,1.73,2.31,2.31v-.58c.58.58,1.16.58,2.31,1.15h-.57a210.32,210.32,0,0,0,25.4,15,7.92,7.92,0,0,1-2.31-1.73A284.34,284.34,0,0,0,318,387h-.58C305.87,380.05,292.6,374.86,279.33,370.82Zm.57-2.89A154.32,154.32,0,0,0,299.53,376,154.32,154.32,0,0,1,279.9,367.93Zm2.31-1.15-1.15.58a30.66,30.66,0,0,0,11,3.46c-.57,0-.57,0-.57-.58A52.53,52.53,0,0,1,282.21,366.78Zm16.16-84.27a2.13,2.13,0,0,0-.57,1.73c-.58,0-.58-.58-.58-1.15a11.12,11.12,0,0,1-5.77,1.73h-1.74a48.45,48.45,0,0,1-5.77,1.15,104.62,104.62,0,0,0,17.89-2.89h-.58C299.53,283.66,298.95,283.66,298.37,282.5Zm-8.08,85.43-6.35-1.73,9.81,3.46Zm-5.2-2.89c2.89,1.73,6.35,2.31,9.82,2.89a30.23,30.23,0,0,0,8.65,4A76.9,76.9,0,0,0,285.09,365Zm23.09-80.81-.57.58a43.76,43.76,0,0,0-8.66.58,29.24,29.24,0,0,0-7.5,1.15c-.57,0-.57,0-.57-.58-1.74.58-3.47.58-5.2,1.15a4.73,4.73,0,0,0,4-.58c2.89,0,5.2,0,6.93-.58s2.89-.58,3.47-1.15a24.84,24.84,0,0,0,9.24,0v-.58l-.58.58C308.18,284.81,308.18,284.81,308.18,284.24Zm-12.69,81.39h-1.74a28.38,28.38,0,0,1,9.81,3.46C300.68,367.93,297.8,366.78,295.49,365.62Zm8.07,8.66-8.65-2.89,12.7,4.62Zm-1.15-1.73c6.93,2.89,14.43,6.35,21.93,9.24C317.42,378.32,309.92,375.44,302.42,372.55Zm4-.58a77.5,77.5,0,0,0,17.32,6.93c-4.62-1.73-8.66-3.46-12.7-5.19A40,40,0,0,1,306.45,372Zm4-1.15c4,2.31,7.51,4,9.82,4.62s3.46,1.15,4,.58l-.57.58c-1.15-.58-2.31-.58-3.46-1.15C316.84,373.7,313.38,372.55,310.49,370.82Zm5.2,10.39c4.62,1.73,9.24,4,13.85,5.77-2.89-1.15-5.77-2.31-7.51-4v-.58l-1.15.58C319.15,382.36,317.42,381.21,315.69,381.21Zm9.24,7.5c1.73,1.15,2.89,1.73,4,1.73,2.89,2.31,5.2,4,8.66,5.19a69.76,69.76,0,0,0,17.32,11.54c-7.51-4.62-15-9.81-22.51-15A46.78,46.78,0,0,0,324.92,388.71ZM371.1,276.16c-1.73.58-2.89,1.15-4.62.58a19.07,19.07,0,0,1-8.08,0c-6.35.58-12.7.58-17.9,1.15,11.54-.58,19.63-.58,26-.58,5.77,0,8.65,0,9.24-.58a2.12,2.12,0,0,0,1.73.58c1.16,0,1.74,0,2.31-.58a9.81,9.81,0,0,0-5.77,0A6.28,6.28,0,0,1,371.1,276.16Z"
                  transform="translate(-15.54 -13.52)"/>
        </g>
        <g id="_グループ_3" data-name="&lt;グループ&gt;">
            <path id="_複合パス_2" data-name="&lt;複合パス&gt;" class="cls-1"
                  d="M459.77,503.56a51,51,0,0,1,7.62,18.16,41.47,41.47,0,0,1-3.81,20.4,100.23,100.23,0,0,1-9.64,17.48q-12.1,18.49-23.53,37-13.79,21.18-29.59,3.36C388.72,588.28,379.53,573.71,373,556a50.69,50.69,0,0,1,6.5-28.69c4.48-9.19,8.52-18.83,12.55-28.69a20.91,20.91,0,0,0-6.27,4.71,119.33,119.33,0,0,1-15.69,11.21L391,486.3q5.72-9.41,14.12-8.74c5.83,4.7,9.19,11.21,9.86,19.72a60.27,60.27,0,0,1-3.13,24.65c-3.14,8.07-6.06,16.13-9.42,24.2a45.41,45.41,0,0,0-3.81,23.31c2,6.28,5.6,9.19,10.31,9,4.93-.22,9.19-2.69,13-7.4,11.88-14.57,20.84-32,27.12-52.22a54.62,54.62,0,0,0-5.38-30Q453,492.8,459.77,503.56Z"
                  transform="translate(-15.54 -13.52)"/>
            <path id="_複合パス_3" data-name="&lt;複合パス&gt;" class="cls-1"
                  d="M506.86,564.07c4.93,5.6,11,9,17.7,9.64a43.23,43.23,0,0,0,18.37-3.36c17-9,26.45-12.1,28.25-9.86,1.79,2.46-4,11.21-16.81,26.22A81.87,81.87,0,0,1,540,599c-5.16,3.81-10.76,4.26-16.36,1.34a154,154,0,0,1-29.14-30.93c-3.58-4-6.72-9.41-9.64-15.24s-2.91-12.1,0-18.83c-3.36-.67-4.93-3.36-5.16-7.84a52.78,52.78,0,0,1,9.19-1.34,266.41,266.41,0,0,1,26.67-31.83c7.17-9.64,15.69-15.24,25.33-16.59a53.83,53.83,0,0,1,13.45,17.71,40.3,40.3,0,0,1,5.38,25.77c-2.69,5.38-6,9.64-10.76,11.88A40,40,0,0,1,535.32,539a97.48,97.48,0,0,1-33.17,2.69C499.91,550.4,501.25,557.8,506.86,564.07ZM522.54,524a25.5,25.5,0,0,0,16.36-8.52c4.26-4.93,5.38-11.21,3.36-18.6-7.17-1.34-13.67,1.57-19.05,8.52a76.21,76.21,0,0,0-14.57,21.29C513.13,526,518.06,525.07,522.54,524Z"
                  transform="translate(-15.54 -13.52)"/>
            <path id="_複合パス_4" data-name="&lt;複合パス&gt;" class="cls-1"
                  d="M643.81,583.79c-.67,5.16-2.69,9.19-5.83,11.65q-6.39.34-11.43-6a176.68,176.68,0,0,1-22.64-23.76c-5.15-6.05-8.29-13.67-9-23.08a50.29,50.29,0,0,1,8.3-20.4c4.26-5.82,8.74-11.21,13-16.36a345.85,345.85,0,0,1,31.83-33.4,15.38,15.38,0,0,1,10.31-4c4,1.12,6.5,4.93,7.4,10.76,2.46-.67,4.71.22,6.95,2.69a50.36,50.36,0,0,1,5.6,7.62c-5.83,18.6-11.43,37.65-16.8,56.7a55.29,55.29,0,0,0-.68,29.58c2.47,9.42,7.18,13,14.12,11.21,8.3-4.48,15.46-11.21,21.51-20.39L688,587.38c-3.13,4.26-6.27,8.74-9.64,13q-9.75,10.76-19.49-.67c-6.5-6.27-10.76-14.34-13.22-24.2C644.93,578.42,644.49,581.11,643.81,583.79Zm-19.27-66.56a69,69,0,0,0-9.86,16.36,40.44,40.44,0,0,0-2.7,20.84A29.8,29.8,0,0,0,619.83,569c3.59,3.58,7.62,2.91,11.65-1.57,6.95-10.76,12.1-23.08,15.91-36.31,4.26-13.67,8.3-27.57,11.65-41.24a8,8,0,0,0-5.16-.9A204,204,0,0,0,624.54,517.23Z"
                  transform="translate(-15.54 -13.52)"/>
            <path id="_複合パス_5" data-name="&lt;複合パス&gt;" class="cls-1"
                  d="M774.28,589.4c-9.42,16.13-19.05,16.58-28.69.9a126.7,126.7,0,0,1-11.43-32.05A156,156,0,0,1,733,531.13c-4-.9-8.07-1.79-11.65-2.46-5.6-1.57-9.86-5.15-13.22-10.76a279.12,279.12,0,0,0,28.24-14.34c2.69-11,6-22.41,9.64-33.62,1.57-6.05,3.14-12.33,4.93-18.38,1.35-6.05,4.49-10.53,9.19-13.22,3.59,2.46,5.83,6.5,6.73,11.43a79.88,79.88,0,0,1,1.35,14.57q-.34,11.43-1.35,22.86a41.28,41.28,0,0,1,26-.9,93.11,93.11,0,0,1-10.31,13.9,31.6,31.6,0,0,0-7,12.33,90.39,90.39,0,0,1-17,13.89,135.44,135.44,0,0,0-2.69,23.31,86,86,0,0,0,1.57,24c.68,7.39,4,11,9.86,10.31a41.29,41.29,0,0,0,10.53-13c3.14-6.27,6.5-12.33,9.86-18.82a82.24,82.24,0,0,1,20.84-23.76C797.14,548.61,785.48,569,774.28,589.4Z"
                  transform="translate(-15.54 -13.52)"/>
        </g>
        <g id="_グループ_4" data-name="&lt;グループ&gt;">
            <path id="_複合パス_6" data-name="&lt;複合パス&gt;" class="cls-1"
                  d="M843.41,615.11V319h6.44L1047,546V319h29.19V615.11h-6.64L874,390.86V615.11Z"
                  transform="translate(-15.54 -13.52)"/>
            <path id="_複合パス_7" data-name="&lt;複合パス&gt;" class="cls-1"
                  d="M1148.42,319h169.72v29H1178v92.81h138.91v29H1178V586.12h138.91v29H1148.42Z"
                  transform="translate(-15.54 -13.52)"/>
            <path id="_複合パス_8" data-name="&lt;複合パス&gt;" class="cls-1"
                  d="M1510.31,311.51q67.27,0,112.61,44.89t45.33,110.53q0,65-45.23,110.33t-110.29,45.3q-65.87,0-111.2-45.1t-45.33-109.12a157.82,157.82,0,0,1,20.65-79.12,152.51,152.51,0,0,1,133.47-77.71Zm1.31,28.79a126.45,126.45,0,0,0-108.29,63.27q-16.54,29-16.54,64.68,0,52.79,36.6,89.16t88.23,36.37A126.66,126.66,0,0,0,1575.43,577a119.68,119.68,0,0,0,45.78-45.73q16.43-29,16.44-64.48,0-35.25-16.44-63.77t-46.28-45.63A125.21,125.21,0,0,0,1511.61,340.3Z"
                  transform="translate(-15.54 -13.52)"/>
        </g>
    </g>
</svg>